# xmcd
#
# Track frame offsets:
#	150
#	3089
#	18090
#	33139
#	46134
#	66143
#	79803
#	96741
#	109980
#	126869
#	142545
#	162004
#	182961
#	203134
#
# Disc length: 2936 seconds
#
# Revision: 1
# Processed by: cddbd v1.5.2PL0 Copyright (c) Steve Scherf et al.
# Submitted via: audiograbber 1.83.01
#
DISCID=ab0b760e
DTITLE=Joss Stone - Introducing Joss Stone 
DYEAR=2007
DGENRE=R&B
TTITLE0=Change (Vinnie Jones Intro)
TTITLE1=Girl They Won't Believe It
TTITLE2=Headturner
TTITLE3=Tell Me `Bout It
TTITLE4=Tell Me What We're Gonna Do Now feat. Common
TTITLE5=Put Your Hands On Me
TTITLE6=Music feat. Lauryn Hill
TTITLE7=Arms Of My Baby
TTITLE8=Bad Habit
TTITLE9=Proper Nice
TTITLE10=Bruised But Not Broken
TTITLE11=Baby Baby Baby
TTITLE12=What Were We Thinking
TTITLE13=Music Outro
EXTD=
EXTT0=
EXTT1=
EXTT2=
EXTT3=
EXTT4=
EXTT5=
EXTT6=
EXTT7=
EXTT8=
EXTT9=
EXTT10=
EXTT11=
EXTT12=
EXTT13=
PLAYORDER=
